<?xml version="1.0" encoding="UTF-8" standalone="no"?>
<!DOCTYPE svg PUBLIC "-//W3C//DTD SVG 1.1//EN" "http://www.w3.org/Graphics/SVG/1.1/DTD/svg11.dtd">
<svg width="100%" height="100%" viewBox="0 0 234 247" version="1.1" xmlns="http://www.w3.org/2000/svg" xmlns:xlink="http://www.w3.org/1999/xlink" xml:space="preserve" xmlns:serif="http://www.serif.com/" style="fill-rule:evenodd;clip-rule:evenodd;stroke-linejoin:round;stroke-miterlimit:2;">
    <g transform="matrix(1,0,0,1,-520.396842,-223.582164)">
        <g transform="matrix(1,0,0,1,-51.331768,45.171956)">
            <g transform="matrix(1.333984,0,0,1.333984,0,0)">
                <path d="M541.606,187.913C550.378,186.769 553.876,186.532 559.437,195.545C561.104,198.246 600.421,209.937 602.238,211.758C603.572,213.094 603.647,273.562 602.22,277.383C601.412,279.548 600.245,282.672 577.299,292.004C573.475,293.56 520.679,317.232 518.363,318.139C514.882,319.503 514.233,318.609 463.349,295.829C441.279,285.949 431.278,283.526 429.362,276.543C428.061,271.801 428.763,212.926 428.892,212.637C430.36,209.379 467.668,199.289 472.267,196.178C479.549,191.253 479.888,192.02 488.609,190.986C492.632,190.509 484.544,175.712 491.504,175.751C501.661,175.809 508.565,181.192 509.787,182.145C512.888,184.563 515.227,175.691 527.517,174.708C533.477,174.232 530.66,187.245 529.522,189.509C527.229,194.066 533.32,190.706 541.606,187.913Z" style="fill:rgb(70,51,35);"/>
            </g>
            <g transform="matrix(1.333984,0,0,1.333984,0,0)">
                <path d="M593.382,212.669C593.36,214.268 593.179,214.285 591.662,214.809C586.545,216.575 586.744,216.978 529.644,241.86C518.51,246.712 517.596,248.703 511.668,246.106C461,223.912 460.967,224.205 456.599,222.209C438.511,213.945 437.388,214.255 437.89,212.857C437.894,212.847 462.219,204.985 466.782,202.987C471.682,200.841 465.363,213.643 478.386,218.788C484.626,221.253 486.956,216.769 490.36,222.576C496.352,232.797 503.735,231.799 526.654,222.839C553.068,212.512 555.472,214.32 559.928,203.646C561.525,199.821 570.237,205.633 593.382,212.669Z" style="fill:rgb(114,67,44);"/>
            </g>
            <g transform="matrix(1.333984,0,0,1.333984,0,0)">
                <path d="M543.476,174.136C528.767,172.623 533.173,163.787 543.856,139.674C548.087,130.126 566.084,131.452 560.342,148.445C559.075,152.194 563.748,152.973 564.51,151.508C565.397,149.803 567.589,142.073 575.485,142.669C578.329,142.883 587.004,146.527 582.226,157.388C574.471,175.016 571.274,185.744 562.405,182.82C550.956,179.046 558.495,167.245 557.156,165.876C554.609,163.27 553.467,163.902 552.015,167.314C549.164,174.016 544.201,173.923 543.476,174.136Z" style="fill:rgb(70,52,36);"/>
            </g>
            <g transform="matrix(1.333984,0,0,1.333984,0,0)">
                <path d="M470.577,266.346C509.148,283.112 509.353,282.64 512.49,284.514C514.301,285.597 514.853,298.667 511.587,297.232C477.804,282.386 475.816,280.008 466.489,280.22C455.68,280.465 459.685,272.498 448.422,267.685C437.677,263.093 437.379,264.785 434.452,265.139C431.519,265.494 433.008,251.253 433.055,251.193C434.424,249.455 446.827,256.518 469.377,265.787C469.785,265.955 470.169,266.178 470.577,266.346Z" style="fill:rgb(252,247,236);"/>
            </g>
            <g transform="matrix(1.333984,0,0,1.333984,0,0)">
                <path d="M465.378,230.747C469.233,232.354 511.749,250.066 513.175,251.738C513.851,252.531 514.497,263.793 512.615,263.998C510.36,264.244 444.906,233.303 434.5,231.498C432.866,231.214 432.838,229.689 432.834,229.48C432.726,223.539 432.175,216.824 434.531,217.278C437.175,217.788 436.958,218.367 465.378,230.747Z" style="fill:rgb(252,247,235);"/>
            </g>
            <g transform="matrix(1.333984,0,0,1.333984,0,0)">
                <path d="M517.888,288.5C517.997,286.568 517.972,286.578 518.006,286.414C518.706,282.983 538.032,279.616 543.387,272.419C545.16,270.035 545.482,270.109 548.457,270.76C550.016,271.102 552.31,271.604 567.228,264.008C571.22,261.975 572.838,258.672 574.51,258.602C590.815,257.92 595.579,248.24 598.41,250.588C599.291,251.32 598.77,251.521 598.778,257.499C598.784,262.663 600.592,265.656 595.457,264.744C590.633,263.887 580,267.577 574.964,273.869C570.326,279.665 569.935,279.872 562.494,279.799C553.847,279.714 520.568,297.994 518.631,297.192C517.893,296.887 517.888,289.198 517.888,288.5Z" style="fill:rgb(252,247,235);"/>
            </g>
            <g transform="matrix(1.333984,0,0,1.333984,0,0)">
                <path d="M517.89,259.492C517.963,257.504 517.803,255.513 517.876,253.526C517.978,250.758 526.903,247.867 565.382,231.222C595.137,218.35 594.731,216.961 597.539,217.08C599.646,217.169 599.454,232.012 597.504,232.049C593.907,232.117 593.302,229.65 580.696,235.872C571.28,240.52 572.515,245.694 569.393,244.961C566.007,244.165 564.231,242.076 549.687,249.854C543.808,252.998 543.861,257.655 541.579,257.202C535.614,256.018 535.23,255.559 520.61,262.739C516.493,264.76 517.926,260.25 517.89,259.492Z" style="fill:rgb(252,247,235);"/>
            </g>
            <g transform="matrix(1.333984,0,0,1.333984,0,0)">
                <path d="M451.569,242.354C455.494,244.021 490.213,258.767 500.458,263.581C512.153,269.077 513.648,268.228 513.706,271.492C513.717,272.129 513.838,279.033 513.438,279.449C512.353,280.578 512.026,279.631 486.413,268.717C482.327,266.976 438.227,248.185 435.599,246.354C431.158,243.257 431.505,233.861 437.587,236.288C441.229,237.742 446.943,240.417 451.569,242.354Z" style="fill:rgb(207,175,145);"/>
            </g>
            <g transform="matrix(1.333984,0,0,1.333984,0,0)">
                <path d="M555.64,198.485L554.264,199.5C550.67,205.301 548.427,204.934 521.374,215.199C505.807,221.106 503.119,223.607 493.378,217.534C492.016,207.135 502.427,205.866 516.391,201.172C542.99,192.231 550.206,185.852 555.64,198.485Z" style="fill:rgb(247,229,206);"/>
            </g>
            <g transform="matrix(1.333984,0,0,1.333984,0,0)">
                <path d="M592.539,268.893C598.978,269.244 603.233,275.521 591.609,280.744C583.021,284.603 519.447,313.042 519.415,313.051C516.977,313.781 517.652,303.363 518.472,302.476C519.257,301.625 555.698,285.61 559.395,284.185C562.692,282.913 570.299,286.524 576.15,279.213C582.376,271.435 583.061,272.08 592.539,268.893Z" style="fill:rgb(207,174,145);"/>
            </g>
            <g transform="matrix(1.333984,0,0,1.333984,0,0)">
                <path d="M439.412,268.956C450.632,272.585 450.517,273.189 455.915,280.133C461.605,287.452 464.668,280.928 478.251,286.978C513.13,302.513 513.328,302.54 513.591,303.474C513.856,304.414 514.375,312.742 512.564,312.885C512.193,312.914 437.946,280.421 435.692,278.289C432.035,274.83 433.233,272.008 433.457,271.481C434.434,269.179 438.895,268.979 439.412,268.956Z" style="fill:rgb(207,175,146);"/>
            </g>
            <g transform="matrix(1.333984,0,0,1.333984,0,0)">
                <path d="M548.911,163.669L547.084,162.5L546.414,163.5C543.867,166.199 543.597,166.496 539.5,165.389L538.061,164.451C538.501,163.073 539.781,159.066 544.966,147.735C547.445,142.318 548.598,138.161 552.52,137.969C560.192,137.593 556.278,146.934 555.959,147.695C553.04,154.661 556.634,154.381 563.636,157.075C569.087,159.172 567.857,147.12 574.525,146.881C584.695,146.516 575.123,162.664 570.907,172.69L569.5,172.058L568.336,172.5C566.402,174.114 566.32,175.866 560.011,173.458C560.693,170.803 560.802,170.936 562.522,166.509C563.237,164.67 563.269,163.759 556.344,160.857C551.596,158.867 550.854,159.606 548.911,163.669Z" style="fill:rgb(252,247,235);"/>
            </g>
            <g transform="matrix(1.333984,0,0,1.333984,0,0)">
                <path d="M555.64,198.485C556.435,208.581 551.683,208.787 543.612,211.811C508.51,224.964 497.736,232.731 493.378,217.534C503.119,223.607 505.807,221.106 521.374,215.199C548.427,204.934 550.67,205.301 554.264,199.5L555.64,198.485Z" style="fill:rgb(206,174,144);"/>
            </g>
            <g transform="matrix(1.333984,0,0,1.333984,0,0)">
                <path d="M474.068,208.654C473.946,207.572 471.437,201.719 477.544,197.567C479.955,195.928 491.249,193.782 494.279,196.72C498.419,200.733 502.567,201.296 498.709,202.862C492.283,205.47 490.715,209.35 489.716,210.666C483.029,210.56 483.066,210.63 482.494,210.551C475.019,209.523 476.086,206.988 475.5,207.193C474.856,207.418 474.712,208.429 474.068,208.654Z" style="fill:rgb(249,232,211);"/>
            </g>
            <g transform="matrix(1.333984,0,0,1.333984,0,0)">
                <path d="M517.881,271.518C518.172,269.516 518.131,269.518 518.195,269.356C518.479,268.629 536.137,257.431 540.279,261.737C548.641,270.429 519.925,280.904 518.42,279.594C517.864,279.111 517.88,272.165 517.881,271.518Z" style="fill:rgb(208,175,146);"/>
            </g>
            <g transform="matrix(1.333984,0,0,1.333984,0,0)">
                <path d="M583.378,239.271C585.342,238.402 588.251,237.06 588.674,236.865C597.56,232.766 599.292,239.022 597.539,243.516C595.739,248.129 572.281,259.706 574.771,248.543C576.248,241.922 581.659,240.249 583.378,239.271Z" style="fill:rgb(206,174,144);"/>
            </g>
            <g transform="matrix(1.333984,0,0,1.333984,0,0)">
                <path d="M551.426,266.107C545.046,266.21 542.551,257.928 554.394,252.272C555.721,251.638 566.994,244.692 569.382,251.542C571.62,257.962 562.562,262.104 551.426,266.107Z" style="fill:rgb(208,175,145);"/>
            </g>
            <g transform="matrix(1.333984,0,0,1.333984,0,0)">
                <path d="M495.523,180.343C497.128,180.75 512.335,184.607 511.503,193.501C511.172,197.049 500.605,183.299 501.395,190.513C501.633,192.69 514.068,201.888 505.422,198.833C491.712,193.987 491.462,180.334 494.492,180.22C494.838,180.207 495.177,180.356 495.523,180.343Z" style="fill:rgb(204,182,147);"/>
            </g>
            <g transform="matrix(1.333984,0,0,1.333984,0,0)">
                <path d="M514.837,189.382C513.953,183.904 518.851,181.522 524.468,179.414C529.676,177.458 525.801,192.322 520.347,195.223C515.601,197.747 515.837,194.647 514.837,189.382Z" style="fill:rgb(204,182,148);"/>
            </g>
            <g transform="matrix(1.333984,0,0,1.333984,0,0)">
                <path d="M474.068,208.654C474.712,208.429 474.856,207.418 475.5,207.193C476.086,206.988 475.019,209.523 482.494,210.551C483.066,210.63 483.029,210.56 489.716,210.666C489.013,214.086 489.161,215.767 482.53,215.276C476.084,214.8 474.336,209.471 474.068,208.654Z" style="fill:rgb(199,165,136);"/>
            </g>
            <g transform="matrix(1.333984,0,0,1.333984,0,0)">
                <path d="M477.328,161.869C477.035,161.687 474.895,160.363 474.667,158.479C474.623,158.121 474.31,155.538 476.368,154.31C483.64,149.971 486.576,163.544 477.328,161.869Z" style="fill:rgb(104,64,42);"/>
            </g>
            <g transform="matrix(1.333984,0,0,1.333984,0,0)">
                <path d="M512.488,156.491C512.888,156.134 516.857,152.587 519.076,157.663C521.651,163.553 508.602,164.944 512.488,156.491Z" style="fill:rgb(104,65,43);"/>
            </g>
            <g transform="matrix(1.333984,0,0,1.333984,0,0)">
                <path d="M570.907,172.69C570.673,173.232 568.615,177.993 566.548,178.642C560.439,180.563 560.051,174.124 560.011,173.458C566.32,175.866 566.402,174.114 568.336,172.5L569.5,172.058L570.907,172.69Z" style="fill:rgb(241,220,195);"/>
            </g>
            <g transform="matrix(1.333984,0,0,1.333984,0,0)">
                <path d="M548.911,163.669C548.033,165.702 546.997,170.156 542.479,169.893C538.318,169.651 538.089,165.011 538.061,164.451L539.5,165.389C543.597,166.496 543.867,166.199 546.414,163.5L547.084,162.5L548.911,163.669Z" style="fill:rgb(239,219,193);"/>
            </g>
            <g transform="matrix(1.333984,0,0,1.333984,0,0)">
                <path d="M454.391,182.565C454.286,182.109 453.18,177.331 457.493,177.6C462.919,177.938 459.829,188.2 454.391,182.565Z" style="fill:rgb(99,63,43);"/>
            </g>
            <g transform="matrix(1.333984,0,0,1.333984,0,0)">
                <path d="M580.937,191.254C579.346,184.171 587.278,186.73 586.2,190.428C584.981,194.609 581.265,191.526 580.937,191.254Z" style="fill:rgb(94,58,37);"/>
            </g>
            <g transform="matrix(1.333984,0,0,1.333984,0,0)">
                <path d="M500.486,139.513C498.379,133.057 504.484,135.342 504.819,137.44C505.491,141.643 500.84,139.664 500.486,139.513Z" style="fill:rgb(89,59,39);"/>
            </g>
            <g transform="matrix(1.333984,0,0,1.333984,0,0)">
                <path d="M488.089,200.577C488.799,198.997 488.694,198.325 490.305,198.882C490.444,198.931 491.32,199.234 491.235,200.473C491.069,202.875 489.819,202.252 488.089,200.577Z" style="fill:rgb(179,147,119);"/>
            </g>
            <g transform="matrix(1.333984,0,0,1.333984,0,0)">
                <path d="M531.565,204.75C533.034,205.368 533.754,204.977 533.518,206.504C533.442,206.997 528.315,209.557 531.565,204.75Z" style="fill:rgb(180,147,117);"/>
            </g>
            <g transform="matrix(1.333984,0,0,1.333984,0,0)">
                <path d="M526.445,201.625C529.318,204.993 524.571,205.311 524.287,203.551C523.997,201.754 524.658,201.947 526.445,201.625Z" style="fill:rgb(179,146,116);"/>
            </g>
            <g transform="matrix(1.333984,0,0,1.333984,0,0)">
                <path d="M542.251,204.086C538.221,204.203 540.984,200.289 542.467,201.544C543.634,202.532 543.004,202.716 542.251,204.086Z" style="fill:rgb(187,161,132);"/>
            </g>
            <g transform="matrix(1.333984,0,0,1.333984,0,0)">
                <path d="M504.709,216.395C504.884,214.497 504.775,213.817 506.613,214.17C508.149,214.464 507.926,219.117 504.709,216.395Z" style="fill:rgb(188,159,129);"/>
            </g>
            <g transform="matrix(1.333984,0,0,1.333984,0,0)">
                <path d="M508.52,207.802C509.665,208.22 509.832,207.991 510.099,208.686C511.324,211.869 505.407,210.719 507.355,208.379C507.632,208.046 508.243,208.135 508.52,207.802Z" style="fill:rgb(190,162,134);"/>
            </g>
            <g transform="matrix(1.333984,0,0,1.333984,0,0)">
                <path d="M523.434,211.08C519.23,210.169 523.039,207.071 524.396,208.592C525.478,209.804 524.515,209.828 523.434,211.08Z" style="fill:rgb(183,153,124);"/>
            </g>
            <g transform="matrix(1.333984,0,0,1.333984,0,0)">
                <path d="M516.099,212.555C514.825,216.683 512.005,212.945 513.535,211.543C514.777,210.406 514.812,211.448 516.099,212.555Z" style="fill:rgb(188,160,132);"/>
            </g>
            <g transform="matrix(1.333984,0,0,1.333984,0,0)">
                <path d="M484.309,206.612C484.577,205.068 483.964,204.438 485.476,204.331C487.531,204.187 487.614,208.582 484.309,206.612Z" style="fill:rgb(179,150,124);"/>
            </g>
            <g transform="matrix(1.333984,0,0,1.333984,0,0)">
                <path d="M534.444,198.31C536.08,198.749 536.844,198.713 536.128,200.306C536.066,200.443 535.678,201.307 534.511,201.259C531.422,201.133 534.272,198.471 534.444,198.31Z" style="fill:rgb(184,157,131);"/>
            </g>
            <g transform="matrix(1.333984,0,0,1.333984,0,0)">
                <path d="M515.465,206.503C516.196,205.158 516.032,205.017 516.641,204.876C518.788,204.377 518.598,206.314 518.579,206.516C518.337,208.986 516.948,208.49 515.465,206.503Z" style="fill:rgb(183,152,123);"/>
            </g>
            <g transform="matrix(1.333984,0,0,1.333984,0,0)">
                <path d="M498.997,212.34C499.521,210.989 499.018,210.413 500.489,210.328C503.122,210.175 501.091,214.897 498.997,212.34Z" style="fill:rgb(182,151,122);"/>
            </g>
            <g transform="matrix(1.333984,0,0,1.333984,0,0)">
                <path d="M544.58,197.687C539.592,196.646 543.414,195.007 543.64,194.961C545.923,194.494 546.084,195.852 544.58,197.687Z" style="fill:rgb(183,151,121);"/>
            </g>
            <g transform="matrix(1.333984,0,0,1.333984,0,0)">
                <path d="M479.958,200.523C481.198,199.489 481.206,198.501 482.471,199.533C483.33,200.234 482.323,205.041 479.958,200.523Z" style="fill:rgb(185,158,132);"/>
            </g>
        </g>
    </g>
</svg>
